<svg width="473" height="441" viewBox="0 0 473 441" fill="none" xmlns="http://www.w3.org/2000/svg">
<g clip-path="url(#clip0_92_231)">
<path d="M258.034 0.530636C232.653 -4.05199 165.242 61.1895 165.242 61.1895L208.851 147.277L275.83 233.859L329.556 284.74L384.32 298.928L415.368 315.56H319.715L132.149 286.359L118.865 237.789L146.07 249.038L124.093 193.26H158.285L140.489 135.054L162.459 126.73L177.465 98.3771L165.25 61.1973C165.25 61.1973 152.807 47.2922 147.815 47.4966C126.026 48.322 81.8821 104.972 55.9506 138.976C27.433 176.321 0.597534 178.593 0.597534 178.593V440.486H472.223V315.553H427.575L398.618 291.342L351.872 267.125L367.569 255.389L326.058 224.584L305.299 163.422L332.339 175.15L290.82 117.431H303.381L285.247 80.7698L278.259 23.994C278.267 24.0018 264.558 1.70184 258.034 0.530636ZM303.601 330.236C314.307 332.633 324.69 335.887 336.512 330.126C356.038 321.023 370.234 333.946 389.083 336.43C371.083 338.874 356.226 326.164 337.912 335.031C321.02 342.86 308.168 334.307 292.801 330.236H303.601ZM15.3358 283.042L224.305 315.56H15.3358V283.042ZM109.582 335.274C97.3593 337.632 86.5433 328.907 74.061 335.031C60.7219 341.17 51.085 333.097 38.5555 330.236H48.2159C56.155 331.596 63.8896 334.252 72.3789 330.236H93.9007C98.8999 331.981 103.931 334.205 109.582 335.274ZM79.7048 419.829C60.1481 428.9 45.9914 416.009 27.1186 413.509C45.1268 411.127 59.9751 423.83 78.282 414.94C97.8152 405.822 112.011 418.752 130.868 421.244C112.868 423.665 98.0195 410.97 79.7048 419.829ZM210.565 363.454C197.297 361.866 186.724 366.032 174.211 370.34C151.297 378.216 134.641 362.786 113.072 358.384C114.023 358.195 114.754 358.117 115.375 358.085C126.231 356.765 135.302 361.748 146.062 363.053C159.331 364.672 169.911 360.42 182.417 356.12C205.306 348.291 222.002 363.658 243.547 368.107C231.639 370.591 222.081 364.845 210.565 363.454ZM318.646 403.298C295.733 411.159 279.076 395.752 257.507 391.343C258.264 391.187 259.031 391.087 259.803 391.044C270.658 389.708 279.737 394.715 290.49 396.012C303.758 397.615 314.338 393.378 326.852 389.087C349.742 381.25 366.437 396.617 387.982 401.058C376.066 403.55 366.516 397.804 355 396.413C341.724 394.801 331.152 398.999 318.646 403.298ZM407.893 425.48C388.336 434.551 374.187 421.66 355.315 419.161C373.323 416.755 388.171 429.481 406.486 420.591C426.011 411.473 440.207 424.396 459.056 426.88C441.056 429.316 426.208 416.614 407.893 425.48ZM460.432 364.051C448.209 366.409 437.393 357.676 424.919 363.8C411.053 370.175 401.227 361.151 387.99 358.651C388.808 358.486 389.382 358.47 389.759 358.486C401.259 357.252 411.627 364.719 423.496 358.911C437.346 352.473 447.195 361.544 460.432 364.051Z" fill="black"/>
<path d="M319.777 101.787L360.588 196.135L402.099 267.123L411.162 258.319L422.505 270.558L472.222 295.507V123.788C472.222 123.788 441.716 108.728 431.065 108.154C424.501 107.784 405.251 114.984 405.251 114.984L446.33 169.787C411.885 157.926 405.251 114.984 405.251 114.984C405.251 114.984 389.892 103.382 384.319 101.292C378.573 99.1221 360.596 98.3754 360.596 98.3754L415.367 208.798C368.622 199.963 376.647 136.86 360.596 98.3754C360.596 98.3754 348.318 69.8106 341.763 64.1275C335.616 58.806 319.84 60.8969 313.418 56.3064C305.903 50.8984 296.581 28.3548 288.744 24.008C286.307 22.6717 278.274 24.008 278.274 24.008L303.042 75.8631L319.777 101.787Z" fill="black"/>
<path d="M198.177 53.2749C201.051 49.383 204.798 46.2199 209.116 44.0402C213.435 41.8604 218.205 40.7249 223.043 40.7249C227.881 40.7249 232.651 41.8604 236.97 44.0402C241.288 46.2199 245.035 49.383 247.908 53.2749C251.743 58.46 257.102 62.3176 263.236 64.3088C269.37 66.3 275.973 66.3253 282.122 64.3813C286.736 62.9208 291.628 62.5641 296.404 63.3396C301.181 64.1152 305.708 66.0015 309.623 68.8466C313.537 71.6917 316.729 75.4162 318.941 79.7201C321.153 84.0241 322.323 88.7873 322.358 93.6262C322.414 100.072 324.48 106.34 328.27 111.554C332.06 116.769 337.383 120.67 343.497 122.713C348.088 124.243 352.257 126.829 355.666 130.263C359.075 133.698 361.631 137.885 363.126 142.488C364.621 147.091 365.015 151.98 364.275 156.763C363.535 161.545 361.683 166.087 358.867 170.023C355.121 175.271 353.108 181.557 353.108 188.004C353.108 194.451 355.121 200.737 358.867 205.985C361.683 209.92 363.535 214.462 364.275 219.245C365.015 224.028 364.621 228.917 363.126 233.52C361.631 238.123 359.075 242.31 355.666 245.744C352.257 249.179 348.088 251.765 343.497 253.294C337.383 255.338 332.06 259.239 328.27 264.453C324.48 269.668 322.414 275.936 322.358 282.381C322.324 287.222 321.153 291.986 318.941 296.291C316.728 300.596 313.535 304.321 309.62 307.167C305.704 310.012 301.175 311.898 296.397 312.673C291.619 313.447 286.726 313.089 282.112 311.626C275.964 309.685 269.364 309.711 263.232 311.702C257.1 313.694 251.743 317.55 247.908 322.733C245.035 326.625 241.288 329.788 236.97 331.968C232.651 334.147 227.881 335.283 223.043 335.283C218.205 335.283 213.435 334.147 209.116 331.968C204.798 329.788 201.051 326.625 198.177 322.733C194.342 317.548 188.984 313.69 182.85 311.699C176.715 309.708 170.113 309.682 163.963 311.626C159.35 313.087 154.458 313.444 149.682 312.668C144.905 311.892 140.377 310.006 136.463 307.161C132.549 304.316 129.357 300.592 127.145 296.288C124.933 291.984 123.763 287.22 123.728 282.381C123.672 275.936 121.605 269.668 117.816 264.453C114.026 259.239 108.703 255.338 102.589 253.294C97.9975 251.765 93.8292 249.179 90.4198 245.744C87.0104 242.31 84.4552 238.123 82.9599 233.52C81.4646 228.917 81.071 224.028 81.8108 219.245C82.5506 214.462 84.4031 209.92 87.2191 205.985C90.9646 200.737 92.9778 194.451 92.9778 188.004C92.9778 181.557 90.9646 175.271 87.2191 170.023C84.4031 166.087 82.5506 161.545 81.8108 156.763C81.071 151.98 81.4646 147.091 82.9599 142.488C84.4552 137.885 87.0104 133.698 90.4198 130.263C93.8292 126.829 97.9975 124.243 102.589 122.713C108.703 120.67 114.026 116.769 117.816 111.554C121.605 106.34 123.672 100.072 123.728 93.6262C123.762 88.786 124.933 84.0216 127.145 79.7166C129.358 75.4116 132.551 71.6864 136.466 68.841C140.382 65.9957 144.911 64.1098 149.689 63.3351C154.467 62.5605 159.36 62.9188 163.974 64.3813C170.122 66.3229 176.722 66.2964 182.854 64.3053C188.986 62.3141 194.343 58.4579 198.177 53.2749Z" fill="#FF822D"/>
<path d="M318.442 243.082C288.018 295.771 220.643 313.826 167.964 283.402C115.285 252.978 97.2203 185.603 127.644 132.924C158.068 80.2449 225.443 62.18 278.122 92.6041C330.801 123.028 348.866 190.403 318.442 243.082Z" fill="#FCD53F"/>
<path d="M8.42102 414.589C8.42102 415.254 8.11585 415.144 7.50551 414.256C6.95066 413.423 6.3958 411.842 5.84095 409.512C5.72998 409.012 5.64675 408.485 5.59126 407.93C5.53578 407.32 5.50803 406.71 5.50803 406.099C5.50803 403.658 5.8132 400.856 6.42354 397.693C7.03388 394.475 7.78294 391.146 8.67071 387.706C9.61396 384.21 10.5295 380.826 11.4172 377.552C12.305 374.278 13.0541 371.365 13.6644 368.813C14.2747 366.205 14.5799 364.236 14.5799 362.904C14.5799 362.238 14.5244 361.794 14.4135 361.572C14.3025 361.35 14.247 361.156 14.247 360.99C14.247 360.435 14.6909 360.157 15.5787 360.157C16.5219 360.157 17.6871 360.518 19.0742 361.239C20.4614 361.905 21.6543 362.904 22.6531 364.236C23.6518 365.567 24.0402 367.149 23.8183 368.98C23.8183 369.146 23.7905 369.312 23.735 369.479C23.735 369.645 23.7073 369.84 23.6518 370.062C25.3719 371.893 26.9254 374.056 28.3126 376.553C29.6997 379.05 31.1423 381.686 32.6405 384.46C34.194 387.179 35.9696 389.898 37.9671 392.616C37.9671 392.727 38.2722 393.227 38.8826 394.115C39.5484 394.947 40.3807 396.001 41.3794 397.277C42.3782 398.498 43.4324 399.774 44.5421 401.106C45.7073 402.437 46.7338 403.658 47.6215 404.768V403.935C47.7325 403.048 47.9545 401.439 48.2874 399.108C48.6758 396.778 49.1197 394.059 49.619 390.952C50.1739 387.789 50.7565 384.543 51.3668 381.214C51.9772 377.885 52.5875 374.75 53.1978 371.809C53.8082 368.813 54.3908 366.344 54.9456 364.402C54.9456 364.402 55.2231 364.347 55.7779 364.236C56.3328 364.125 56.8876 364.069 57.4425 364.069C58.0528 364.069 58.5522 364.152 58.9406 364.319C59.3845 364.485 59.6064 364.846 59.6064 365.401C59.6064 365.678 59.5787 365.9 59.5232 366.067C59.2458 367.01 58.8296 368.619 58.2748 370.894C57.7199 373.169 57.0818 375.86 56.3605 378.967C55.6392 382.074 54.8624 385.32 54.0301 388.705C53.2533 392.089 52.4765 395.391 51.6997 398.609C50.9229 401.827 50.2016 404.685 49.5358 407.181L50.0352 407.597C50.9784 408.374 51.6165 409.068 51.9494 409.678C52.2823 410.233 52.4488 410.649 52.4488 410.927C52.4488 411.315 52.1714 411.509 51.6165 411.509C50.8952 411.509 49.8965 411.232 48.6203 410.677C48.2874 411.842 47.9822 412.758 47.7048 413.423C47.4273 414.089 47.3164 414.422 47.3719 414.422C47.3164 414.478 47.2054 414.505 47.0389 414.505C46.6505 414.505 46.4563 414.062 46.4563 413.174C46.4563 412.73 46.5118 412.203 46.6228 411.592C46.7338 410.982 46.817 410.316 46.8725 409.595C43.8763 407.653 41.0743 405.378 38.4664 402.77C35.9141 400.107 33.4173 397.222 30.9759 394.115C29.2558 391.895 27.7855 390.064 26.5648 388.621C25.3996 387.123 24.2899 385.792 23.2357 384.626C22.2369 383.406 21.155 382.102 19.9898 380.715C18.8246 383.434 17.5484 386.291 16.1613 389.287C14.8296 392.283 13.5257 395.224 12.2495 398.109C11.0288 400.939 10.0301 403.575 9.25331 406.016C8.47651 408.402 8.08811 410.4 8.08811 412.009C8.08811 412.286 8.08811 412.536 8.08811 412.758C8.1436 413.035 8.19908 413.285 8.25457 413.507C8.31005 413.729 8.33779 413.923 8.33779 414.089C8.39328 414.311 8.42102 414.478 8.42102 414.589ZM72.2135 414.089C69.9941 414.089 67.9134 413.673 65.9714 412.841C64.0294 412.064 62.4481 410.816 61.2274 409.096C60.2287 407.653 59.5351 406.266 59.1467 404.934C58.7583 403.547 58.5641 402.243 58.5641 401.022C58.5641 399.857 58.7028 398.803 58.9803 397.86C59.2577 396.861 59.5906 396.057 59.979 395.446C61.1442 393.449 62.3649 391.784 63.641 390.452C64.9727 389.121 66.4153 387.928 67.9689 386.874C70.0219 385.542 72.5465 384.876 75.5427 384.876C76.6524 384.876 77.8176 385.32 79.0383 386.208C80.259 387.096 82.0345 388.011 84.3649 388.954C85.9185 389.565 87.3611 390.286 88.6927 391.118C90.0799 391.895 91.1896 392.7 92.0219 393.532C92.9096 394.309 93.3535 395.058 93.3535 395.779C93.3535 396.556 92.7155 397.194 91.4393 397.693C89.6083 398.304 87.4443 398.859 84.9475 399.358C82.4506 399.802 79.9538 400.162 77.4569 400.44C75.0156 400.717 72.8516 400.856 70.9651 400.856C69.5225 400.856 68.4128 400.773 67.636 400.606C67.3031 401.827 67.1366 403.103 67.1366 404.435C67.1366 405.545 67.3031 406.654 67.636 407.764C67.9689 408.874 68.5238 409.9 69.3006 410.843C69.8554 411.454 70.4658 411.898 71.1316 412.175C71.8529 412.397 72.5742 412.508 73.2955 412.508C74.5162 412.508 75.7091 412.314 76.8743 411.925C78.095 411.481 79.1492 411.038 80.037 410.594C80.9248 410.094 81.4796 409.761 81.7016 409.595C82.8113 408.929 83.6436 408.43 84.1984 408.097C84.8088 407.764 85.3914 407.597 85.9462 407.597C86.945 407.597 87.4443 407.819 87.4443 408.263C87.4443 408.541 87.1669 408.957 86.612 409.512C86.0572 410.011 85.0862 410.594 83.6991 411.26C81.9235 412.147 80.037 412.841 78.0395 413.34C76.0975 413.84 74.1555 414.089 72.2135 414.089ZM72.8794 398.109C74.6549 398.109 76.7356 398.026 79.1215 397.86C81.5074 397.638 84.0875 397.277 86.8617 396.778C88.4153 396.445 89.1921 395.973 89.1921 395.363C89.1921 394.864 88.8315 394.336 88.1102 393.782C87.4443 393.171 86.5843 392.616 85.5301 392.117C84.5313 391.618 83.5326 391.202 82.5339 390.869C81.5906 390.48 80.8693 390.286 80.3699 390.286C77.984 390.286 75.9311 390.785 74.211 391.784C72.5465 392.783 71.1038 394.087 69.8832 395.696C69.4948 396.195 69.0786 396.917 68.6347 397.86C69.578 398.026 70.9929 398.109 72.8794 398.109ZM95.2749 429.653C94.6091 429.653 93.8601 428.765 93.0278 426.99C92.1955 425.27 91.7793 423.05 91.7793 420.331C91.7793 419.555 91.8348 418.75 91.9458 417.918C92.0013 417.086 92.14 416.225 92.3619 415.338C93.0278 412.231 93.8046 408.596 94.6923 404.435C95.5801 400.218 96.995 395.613 98.937 390.619C99.7693 388.566 101.018 386.874 102.682 385.542C104.347 384.155 106.067 383.128 107.842 382.463C109.618 381.797 111.033 381.464 112.087 381.464C112.975 381.464 113.419 381.686 113.419 382.13C113.419 382.296 113.058 382.768 112.337 383.545C111.671 384.321 110.866 385.292 109.923 386.458C108.98 387.623 108.12 388.843 107.343 390.12C106.622 391.396 106.206 392.616 106.095 393.782C107.537 392.949 109.313 392.117 111.421 391.285C113.585 390.397 115.888 389.676 118.329 389.121C120.771 388.51 123.129 388.205 125.404 388.205C127.845 388.205 130.092 388.51 132.145 389.121C134.198 389.676 135.835 390.508 137.056 391.618C138.332 392.672 138.97 393.976 138.97 395.529C138.97 397.083 138.221 398.831 136.723 400.773C135.28 402.715 132.783 404.518 129.232 406.183C125.736 407.792 120.937 408.985 114.834 409.761C113.89 409.872 113.141 409.484 112.586 408.596C112.032 407.708 111.754 406.821 111.754 405.933C111.754 405.378 111.865 404.906 112.087 404.518C112.364 404.13 112.725 403.908 113.169 403.852C114.667 403.741 116.498 403.381 118.662 402.77C120.882 402.16 123.045 401.383 125.154 400.44C127.318 399.497 129.093 398.47 130.48 397.36C131.923 396.251 132.644 395.113 132.644 393.948C132.644 392.894 132.09 391.951 130.98 391.118C129.926 390.231 128.233 389.787 125.903 389.787C124.904 389.787 123.794 389.898 122.574 390.12C121.353 390.286 119.994 390.591 118.496 391.035C116.498 391.645 114.473 392.422 112.42 393.365C110.367 394.309 108.536 395.474 106.927 396.861C105.318 398.193 104.153 399.802 103.431 401.688C102.044 405.35 100.629 409.429 99.1867 413.923C97.7995 418.417 96.9118 422.884 96.5234 427.323C96.3569 428.876 95.9408 429.653 95.2749 429.653ZM177.073 413.507C176.519 413.507 176.324 412.98 176.491 411.925C176.768 410.316 176.962 408.707 177.073 407.098C177.24 405.434 177.323 403.991 177.323 402.77C177.323 401.605 177.24 400.662 177.073 399.94C176.962 399.164 176.713 398.775 176.324 398.775C176.158 398.775 175.908 398.859 175.575 399.025C175.298 399.191 174.798 399.524 174.077 400.024C172.856 400.911 171.275 401.882 169.333 402.937C167.447 403.991 165.394 405.045 163.174 406.099C160.955 407.154 158.791 408.152 156.682 409.096C154.574 410.039 152.687 410.899 151.023 411.676C150.08 412.064 148.998 412.258 147.777 412.258C146.39 412.258 145.114 412.036 143.949 411.592C142.839 411.093 142.284 410.344 142.284 409.345C142.284 407.958 142.783 406.099 143.782 403.769C144.781 401.439 146.307 398.914 148.36 396.195C150.413 393.421 152.965 390.758 156.017 388.205C158.07 386.485 160.234 385.126 162.508 384.127C164.783 383.128 167.252 382.629 169.916 382.629C171.303 382.629 172.773 382.795 174.327 383.128C175.88 383.461 177.184 384.016 178.239 384.793C179.348 385.57 179.903 386.652 179.903 388.039C179.903 389.038 179.653 389.759 179.154 390.203C178.71 390.591 178.239 390.785 177.739 390.785C177.073 390.785 176.241 390.508 175.242 389.953C174.299 389.398 173.023 389.121 171.414 389.121C170.249 389.121 169.056 389.315 167.835 389.703C166.614 390.036 165.255 390.619 163.757 391.451C161.205 392.894 158.93 394.475 156.932 396.195C154.935 397.86 153.353 399.497 152.188 401.106C151.078 402.715 150.524 404.102 150.524 405.267C150.524 406.099 150.801 406.765 151.356 407.265C151.966 407.764 152.715 408.014 153.603 408.014C154.99 408.014 156.599 407.597 158.43 406.765C160.261 405.877 162.009 404.99 163.674 404.102C167.114 402.271 169.722 400.717 171.497 399.441C173.328 398.165 174.715 397.166 175.658 396.445C176.657 395.668 177.6 395.141 178.488 394.864C178.655 394.808 178.96 394.78 179.404 394.78C180.292 394.78 181.263 394.975 182.317 395.363C183.426 395.696 183.954 396.029 183.898 396.362C183.898 397.36 183.565 398.526 182.899 399.857C182.234 401.133 181.679 402.659 181.235 404.435C180.957 405.656 180.763 406.765 180.652 407.764C180.597 408.707 180.319 409.983 179.82 411.592C179.764 411.814 179.404 412.175 178.738 412.674C178.072 413.229 177.517 413.507 177.073 413.507ZM190.107 413.257C189.441 413.257 188.859 412.813 188.359 411.925C187.915 410.982 187.555 409.928 187.277 408.763C187 407.542 186.861 406.516 186.861 405.683C186.861 403.852 187.111 401.716 187.61 399.275C188.165 396.833 188.886 394.281 189.774 391.618C190.662 388.899 191.633 386.236 192.687 383.628C193.741 381.02 194.823 378.606 195.933 376.387C197.043 374.112 198.041 372.253 198.929 370.811C199.706 369.534 200.816 368.674 202.258 368.231C203.757 367.731 205.171 367.481 206.503 367.481C207.835 367.481 208.889 367.648 209.666 367.981C210.443 368.314 210.664 368.702 210.332 369.146C208.611 371.365 206.808 373.973 204.922 376.969C203.035 379.966 201.204 383.128 199.429 386.458C197.709 389.787 196.155 393.088 194.768 396.362C193.436 399.635 192.41 402.687 191.688 405.517C190.967 408.347 190.717 410.705 190.939 412.591C190.939 413.035 190.662 413.257 190.107 413.257ZM267.254 415.338C264.758 415.338 262.067 415.033 259.181 414.422C253.688 413.257 249.166 411.509 245.615 409.179C242.064 406.848 239.428 404.185 237.708 401.189C235.988 398.193 235.128 395.113 235.128 391.951C235.128 388.344 236.183 384.821 238.291 381.381C240.399 377.94 243.507 374.944 247.613 372.392C251.719 369.784 256.712 367.981 262.594 366.982C265.59 366.483 268.78 366.233 272.165 366.233C274.717 366.233 277.159 366.399 279.489 366.732C281.819 367.01 283.817 367.426 285.481 367.981C287.202 368.536 288.367 369.257 288.977 370.145C289.254 370.478 289.393 370.949 289.393 371.56C289.393 372.336 289.199 373.002 288.811 373.557C290.919 374.334 292.889 375.471 294.72 376.969C296.551 378.412 297.993 380.132 299.048 382.13C300.157 384.127 300.712 386.347 300.712 388.788C300.712 391.118 300.157 393.476 299.048 395.862C297.328 399.469 294.886 402.743 291.724 405.683C288.616 408.624 284.982 410.954 280.821 412.674C276.659 414.45 272.137 415.338 267.254 415.338ZM265.091 412.591C269.307 412.591 273.247 411.787 276.909 410.178C280.571 408.513 283.789 406.321 286.563 403.603C289.338 400.828 291.474 397.804 292.972 394.531C293.582 393.254 293.998 392.034 294.22 390.869C294.498 389.703 294.637 388.594 294.637 387.539C294.637 384.599 293.777 382.13 292.056 380.132C290.392 378.135 288.311 376.637 285.814 375.638C283.373 374.584 280.932 374.056 278.49 374.056C276.16 374.056 274.19 374.5 272.581 375.388C272.026 375.666 271.555 375.804 271.166 375.804C270.5 375.804 270.167 375.582 270.167 375.138C270.167 374.972 270.611 374.806 271.499 374.639C272.442 374.473 273.608 374.306 274.995 374.14C276.382 373.918 277.797 373.724 279.239 373.557C280.737 373.391 282.014 373.252 283.068 373.141C284.178 372.975 284.899 372.836 285.232 372.725C284.51 372.669 283.817 372.614 283.151 372.558C282.485 372.503 282.374 372.475 282.818 372.475H282.901C284.566 372.475 285.398 372.531 285.398 372.642C285.398 372.642 285.343 372.669 285.232 372.725C285.787 372.78 286.203 372.836 286.48 372.891V372.392C286.48 371.06 285.481 370.062 283.484 369.396C281.542 368.73 279.184 368.397 276.41 368.397C274.69 368.397 272.831 368.536 270.833 368.813C268.891 369.035 266.949 369.423 265.007 369.978C259.792 371.421 255.575 373.363 252.357 375.804C249.138 378.19 246.808 380.853 245.365 383.794C243.923 386.679 243.201 389.592 243.201 392.533C243.201 395.474 243.84 398.304 245.116 401.022C246.392 403.686 248.167 405.988 250.442 407.93C252.773 409.817 255.436 411.121 258.432 411.842C260.707 412.342 262.927 412.591 265.091 412.591ZM307.211 410.011C306.212 410.011 305.74 409.65 305.796 408.929C306.073 407.542 306.295 405.85 306.461 403.852C306.683 401.799 306.794 399.83 306.794 397.943C306.794 396.057 306.628 394.447 306.295 393.116C306.018 391.729 305.463 391.035 304.63 391.035C303.41 390.98 302.799 390.73 302.799 390.286C302.799 389.953 303.105 389.648 303.715 389.37C304.547 388.927 305.49 388.538 306.545 388.205C307.599 387.872 308.653 387.706 309.707 387.706C310.318 387.706 310.928 387.789 311.538 387.956C312.149 388.067 312.731 388.289 313.286 388.621C313.952 389.01 314.368 389.592 314.535 390.369C314.757 391.146 314.895 391.84 314.951 392.45C315.062 393.116 315.117 393.449 315.117 393.449C315.228 393.449 315.339 393.31 315.45 393.033C315.617 392.755 315.755 392.533 315.866 392.367C317.031 390.591 318.474 388.843 320.194 387.123C321.97 385.348 323.828 383.877 325.77 382.712C327.712 381.492 329.46 380.881 331.014 380.881C332.734 380.881 334.01 381.436 334.842 382.546C335.675 383.655 336.091 384.71 336.091 385.708C336.091 386.985 335.508 387.623 334.343 387.623C333.455 387.623 332.817 387.401 332.429 386.957C332.096 386.458 331.735 385.986 331.347 385.542C331.014 385.098 330.431 384.876 329.599 384.876C328.156 384.876 326.686 385.431 325.188 386.541C323.69 387.595 322.414 388.76 321.359 390.036C319.639 392.089 318.197 394.531 317.031 397.36C315.922 400.135 315.173 402.853 314.784 405.517C314.673 406.294 314.146 407.043 313.203 407.764C312.315 408.43 311.289 408.985 310.124 409.429C309.014 409.817 308.043 410.011 307.211 410.011ZM343.713 381.63C343.158 381.63 342.742 381.575 342.465 381.464C342.187 381.297 341.91 381.103 341.633 380.881C341.3 380.548 340.911 380.16 340.467 379.716C340.023 379.217 339.802 378.801 339.802 378.468C339.802 378.19 339.968 378.024 340.301 377.968C343.186 377.08 345.35 376.637 346.793 376.637C347.681 376.637 348.346 376.775 348.79 377.053C349.29 377.275 349.706 377.608 350.039 378.051C350.15 378.107 350.344 378.384 350.621 378.884C350.899 379.328 351.037 379.605 351.037 379.716C351.037 380.104 350.566 380.354 349.622 380.465C348.679 380.576 347.902 380.687 347.292 380.798C346.682 381.02 346.071 381.214 345.461 381.381C344.906 381.547 344.324 381.63 343.713 381.63ZM342.215 411.343C341.882 411.343 341.494 411.038 341.05 410.427C340.606 409.817 340.162 409.151 339.718 408.43C338.609 406.488 337.693 404.49 336.972 402.437C336.25 400.384 335.89 398.415 335.89 396.528C335.89 394.808 336.223 393.199 336.889 391.701C337.554 390.203 338.609 388.927 340.051 387.872C340.884 387.207 342.076 386.874 343.63 386.874C344.573 386.874 345.406 387.068 346.127 387.456C346.848 387.789 347.209 388.427 347.209 389.37C347.209 390.258 346.82 391.423 346.044 392.866C345.322 394.309 344.657 395.862 344.046 397.527C343.713 398.581 343.436 399.802 343.214 401.189C343.047 402.576 342.992 404.157 343.047 405.933C343.047 406.321 343.047 406.682 343.047 407.015C343.103 407.292 343.131 407.57 343.131 407.847C343.131 409.123 343.047 410.039 342.881 410.594C342.715 411.093 342.493 411.343 342.215 411.343ZM369.514 430.069C367.239 430.069 365.214 429.653 363.438 428.821C361.663 428.044 360.276 427.045 359.277 425.824C358.278 424.604 357.779 423.383 357.779 422.162C357.779 420.609 358.639 419.333 360.359 418.334C360.636 418.167 360.886 418.445 361.108 419.166C361.385 419.888 361.774 420.748 362.273 421.746C362.828 422.801 363.688 423.716 364.853 424.493C366.018 425.325 367.655 425.741 369.764 425.741C372.871 425.741 375.451 425.02 377.504 423.577C379.557 422.19 381.194 420.331 382.414 418.001C383.691 415.726 384.578 413.229 385.078 410.51C385.577 407.792 385.771 405.156 385.66 402.604C385.66 402.604 385.577 402.215 385.411 401.439C385.244 400.662 385.105 399.663 384.995 398.442C384.884 398.664 384.689 398.914 384.412 399.191C384.19 399.413 383.94 399.608 383.663 399.774C382.109 400.939 380.223 402.077 378.003 403.186C375.784 404.296 373.481 405.378 371.095 406.432C368.71 407.487 366.435 408.458 364.271 409.345C362.162 410.233 360.359 411.01 358.861 411.676C358.084 412.064 357.002 412.258 355.615 412.258C354.228 412.258 352.952 411.981 351.786 411.426C350.566 410.871 349.955 410.067 349.955 409.012C349.955 407.57 350.51 405.711 351.62 403.436C352.674 401.106 354.145 398.692 356.031 396.195C357.918 393.643 360.054 391.34 362.44 389.287C365.214 386.901 367.794 385.209 370.18 384.21C372.566 383.156 375.146 382.629 377.92 382.629C378.364 382.629 378.836 382.657 379.335 382.712C379.834 382.712 380.334 382.74 380.833 382.795C381.832 382.795 382.692 382.99 383.413 383.378C384.134 383.711 384.773 384.016 385.327 384.294C385.272 383.35 385.383 382.629 385.66 382.13C385.993 381.63 386.243 381.381 386.409 381.381C387.686 381.381 388.878 381.63 389.988 382.13C391.153 382.629 392.097 383.239 392.818 383.961C393.595 384.682 394.011 385.403 394.066 386.125C394.122 386.679 394.15 387.234 394.15 387.789C394.205 388.289 394.233 388.816 394.233 389.37C394.233 392.866 393.844 396.389 393.068 399.94C392.291 403.436 391.237 406.821 389.905 410.094C388.629 413.313 387.186 416.253 385.577 418.917C383.302 422.634 380.972 425.408 378.586 427.239C376.2 429.126 373.176 430.069 369.514 430.069ZM361.441 407.93C362.884 407.93 364.52 407.514 366.351 406.682C368.182 405.85 369.902 405.017 371.512 404.185C380.223 399.524 384.689 396.584 384.911 395.363C385.189 394.42 385.327 393.671 385.327 393.116C385.327 392.505 385.189 391.729 384.911 390.785C384.578 389.01 383.33 388.122 381.166 388.122C380.112 388.122 378.78 388.4 377.171 388.954C375.562 389.454 373.703 390.314 371.595 391.534C369.042 392.977 366.74 394.558 364.687 396.278C362.689 397.943 361.108 399.58 359.943 401.189C358.833 402.743 358.278 404.074 358.278 405.184C358.278 406.072 358.583 406.765 359.194 407.265C359.804 407.708 360.553 407.93 361.441 407.93ZM411.418 381.63C410.863 381.63 410.447 381.575 410.169 381.464C409.892 381.297 409.614 381.103 409.337 380.881C409.004 380.548 408.616 380.16 408.172 379.716C407.728 379.217 407.506 378.801 407.506 378.468C407.506 378.19 407.672 378.024 408.005 377.968C410.89 377.08 413.054 376.637 414.497 376.637C415.385 376.637 416.051 376.775 416.494 377.053C416.994 377.275 417.41 377.608 417.743 378.051C417.854 378.107 418.048 378.384 418.326 378.884C418.603 379.328 418.742 379.605 418.742 379.716C418.742 380.104 418.27 380.354 417.327 380.465C416.384 380.576 415.607 380.687 414.996 380.798C414.386 381.02 413.776 381.214 413.165 381.381C412.611 381.547 412.028 381.63 411.418 381.63ZM409.919 411.343C409.587 411.343 409.198 411.038 408.754 410.427C408.31 409.817 407.866 409.151 407.423 408.43C406.313 406.488 405.397 404.49 404.676 402.437C403.955 400.384 403.594 398.415 403.594 396.528C403.594 394.808 403.927 393.199 404.593 391.701C405.259 390.203 406.313 388.927 407.756 387.872C408.588 387.207 409.781 386.874 411.334 386.874C412.278 386.874 413.11 387.068 413.831 387.456C414.553 387.789 414.913 388.427 414.913 389.37C414.913 390.258 414.525 391.423 413.748 392.866C413.027 394.309 412.361 395.862 411.75 397.527C411.418 398.581 411.14 399.802 410.918 401.189C410.752 402.576 410.696 404.157 410.752 405.933C410.752 406.321 410.752 406.682 410.752 407.015C410.807 407.292 410.835 407.57 410.835 407.847C410.835 409.123 410.752 410.039 410.585 410.594C410.419 411.093 410.197 411.343 409.919 411.343ZM426.565 412.674C426.343 412.674 425.955 412.508 425.4 412.175C424.845 411.898 424.318 411.509 423.819 411.01C423.375 410.455 423.153 409.9 423.153 409.345C423.153 407.792 423.402 405.877 423.902 403.603C424.457 401.272 425.178 398.831 426.066 396.278C426.954 393.671 427.897 391.257 428.896 389.038C429.339 388.094 429.95 387.456 430.727 387.123C431.503 386.735 432.336 386.541 433.223 386.541C434.5 386.541 435.692 386.874 436.802 387.539C437.912 388.205 438.467 389.065 438.467 390.12C438.467 390.674 438.273 391.229 437.884 391.784C437.607 392.173 437.274 392.727 436.885 393.449C436.497 394.115 436.164 394.725 435.887 395.28C435.554 395.946 435.471 396.278 435.637 396.278C435.692 396.278 435.97 396.029 436.469 395.529C437.579 394.475 439.077 393.393 440.964 392.283C442.906 391.118 444.903 390.147 446.956 389.37C449.009 388.538 450.785 388.122 452.283 388.122C454.502 388.122 456.305 388.76 457.692 390.036C459.135 391.257 460.189 392.838 460.855 394.78C461.521 396.722 461.854 398.72 461.854 400.773C461.854 404.435 461.022 407.348 459.357 409.512C459.135 409.845 458.691 410.316 458.025 410.927C457.36 411.537 456.86 411.842 456.527 411.842C456.361 411.842 456.278 411.731 456.278 411.509C456.278 411.398 456.278 411.287 456.278 411.176C456.333 411.065 456.389 410.927 456.444 410.76C456.888 409.539 457.221 408.208 457.443 406.765C457.72 405.323 457.859 403.88 457.859 402.437C457.859 400.606 457.582 398.886 457.027 397.277C456.527 395.668 455.64 394.364 454.363 393.365C453.143 392.367 451.45 391.867 449.286 391.867C445.902 391.867 442.961 392.922 440.464 395.03C438.023 397.138 435.582 400.079 433.14 403.852C431.254 406.737 429.839 408.929 428.896 410.427C427.952 411.925 427.175 412.674 426.565 412.674Z" fill="white"/>
<path d="M333.169 96.1088C287.241 107.482 276.525 142.57 265.91 171.97L275.555 175.723L280.403 162.644C282.853 163.611 285.404 164.35 287.241 164.35C343.376 164.35 358.685 67.675 358.685 67.675C353.582 79.0486 317.86 80.4702 292.344 86.157C266.829 91.8437 256.623 116.012 256.623 127.386C256.623 138.759 265.553 148.711 265.553 148.711C282.138 96.1088 333.169 96.1088 333.169 96.1088Z" fill="#00C03D"/>
<path d="M179.134 235.369H156.191C157.228 233.425 158.856 231.784 160.885 230.635C162.915 229.487 165.265 228.877 167.663 228.877C170.061 228.877 172.41 229.487 174.44 230.635C176.47 231.784 178.097 233.425 179.134 235.369ZM215.843 228.856C215.851 226.181 216.07 223.511 216.499 220.864C214.718 221.122 213.018 221.718 211.512 222.612C210.007 223.507 208.73 224.679 207.768 226.051C206.805 227.423 206.178 228.963 205.928 230.57C205.678 232.176 205.811 233.812 206.319 235.369H216.289C216.007 233.207 215.867 231.033 215.869 228.856H215.843ZM164.326 186.703C155.804 179.041 144.359 170.942 134.264 170.942H133.425L133.956 180.373C138.814 180.161 146.647 184.44 155.477 192.16C156.032 192.644 156.576 193.129 157.109 193.617C158.557 193.336 160.032 193.18 161.514 193.151C162.05 190.872 163.009 188.69 164.352 186.697L164.326 186.703ZM177.607 177.426C179.017 175.936 180.281 174.339 181.382 172.652C183.051 170.107 184.353 167.382 185.257 164.542C186.158 161.72 186.654 158.806 186.732 155.872C186.801 153.141 186.495 150.413 185.821 147.75C185.523 146.59 185.157 145.445 184.725 144.32C184.367 143.389 183.961 142.475 183.507 141.579C183.19 140.958 182.847 140.349 182.477 139.752C182.353 139.54 182.222 139.369 182.15 139.257L182.032 139.086L181.835 139.174C181.704 139.233 181.501 139.322 181.271 139.439C180.6 139.771 179.944 140.127 179.304 140.506C178.393 141.05 177.518 141.64 176.683 142.275C175.659 143.029 174.681 143.832 173.752 144.679C171.627 146.628 169.778 148.806 168.246 151.163C166.603 153.699 165.327 156.415 164.451 159.243C163.549 162.079 163.051 165.006 162.969 167.954C162.905 170.685 163.211 173.412 163.88 176.076C164.419 178.189 165.192 180.249 166.188 182.224C166.444 182.742 166.693 183.184 166.916 183.556C169.786 180.656 173.497 178.532 177.633 177.42L177.607 177.426ZM364.213 155.913C364.088 155.848 363.891 155.742 363.656 155.63C362.986 155.305 362.299 155.01 361.597 154.746C360.725 154.416 359.69 154.05 358.523 153.715C357.261 153.353 355.979 153.052 354.682 152.813C351.704 152.272 348.663 152.064 345.629 152.194C342.366 152.334 339.137 152.849 336.019 153.726C332.898 154.595 329.912 155.815 327.131 157.357C324.546 158.795 322.167 160.511 320.044 162.467L319.749 162.75C322.766 165.959 325.097 169.642 326.625 173.612C328.67 173.833 330.731 173.902 332.787 173.819C336.051 173.68 339.282 173.171 342.404 172.304C345.528 171.448 348.517 170.236 351.299 168.697C353.886 167.262 356.266 165.546 358.385 163.587C359.312 162.731 360.187 161.832 361.007 160.894C361.761 160.021 362.397 159.208 362.902 158.477C363.407 157.746 363.793 157.145 364.043 156.708C364.173 156.496 364.266 156.308 364.324 156.19L364.423 156.007L364.213 155.913ZM317.54 123.544C317.304 122.712 317.075 121.929 317.003 121.575L306.659 123.284C306.796 123.962 307.032 124.775 307.353 125.895C308.887 131.235 312.421 143.542 308.16 154.428C311.382 155.935 314.349 157.848 316.97 160.11C323.938 145.935 319.428 130.204 317.514 123.543L317.54 123.544ZM195.09 337.175H261.913C273.3 337.175 284.576 335.159 295.096 331.241C305.617 327.322 315.176 321.58 323.228 314.34C331.28 307.1 337.667 298.505 342.025 289.046C346.382 279.587 348.625 269.449 348.625 259.21V244.799H108.398V259.216C108.399 279.89 117.533 299.716 133.79 314.336C150.047 328.955 172.097 337.171 195.09 337.175ZM328.697 228.856C328.71 217.015 323.627 205.628 314.511 197.082C316.617 193.802 317.855 190.132 318.131 186.353C318.407 182.575 317.712 178.79 316.102 175.291C314.491 171.792 312.007 168.673 308.842 166.175C305.677 163.677 301.915 161.867 297.848 160.885C293.78 159.903 289.516 159.775 285.385 160.511C281.254 161.247 277.366 162.827 274.023 165.129C270.679 167.432 267.969 170.395 266.102 173.789C264.236 177.183 263.262 180.918 263.256 184.705C251.416 187.791 241.214 194.62 234.53 203.934C227.846 213.248 225.13 224.42 226.882 235.393H328.159C328.509 233.228 328.689 231.044 328.697 228.856ZM195.332 232.163C195.33 227.097 197.386 222.205 201.114 218.406C199.893 216.324 197.989 214.629 195.66 213.554C193.331 212.479 190.69 212.075 188.096 212.397C185.503 212.719 183.082 213.751 181.165 215.354C179.247 216.956 177.924 219.051 177.377 221.353C180.522 222.663 183.303 224.586 185.517 226.983C187.732 229.38 189.325 232.191 190.18 235.21C192.002 235.16 193.79 234.758 195.424 234.031C195.363 233.41 195.333 232.786 195.332 232.163ZM152.068 224.831C150.474 222.198 147.796 220.232 144.609 219.354C141.421 218.476 137.978 218.756 135.017 220.134C132.057 221.512 129.815 223.878 128.772 226.725C127.729 229.572 127.969 232.673 129.439 235.363H145.074C146.18 231.303 148.62 227.635 152.068 224.831ZM195.581 192.155C194.378 190.071 192.491 188.37 190.176 187.282C187.861 186.195 185.231 185.773 182.641 186.075C180.051 186.377 177.627 187.387 175.697 188.969C173.767 190.551 172.424 192.628 171.851 194.919C176.378 196.829 180.105 199.994 182.484 203.948C184.498 203.34 186.596 202.985 188.718 202.893C189.745 198.773 192.142 195.029 195.581 192.155ZM211.385 195.986C208.556 195.981 205.805 196.823 203.567 198.378C201.329 199.934 199.73 202.116 199.023 204.579C203.435 206.294 207.152 209.189 209.668 212.872C212.488 211.812 215.514 211.267 218.57 211.269H219.036C220.11 208.367 221.455 205.552 223.054 202.852C222.062 200.812 220.43 199.076 218.357 197.856C216.285 196.637 213.862 195.987 211.385 195.986ZM173.497 208.923C172.354 206.84 170.533 205.119 168.277 203.988C166.02 202.857 163.435 202.371 160.863 202.593C158.292 202.814 155.856 203.735 153.88 205.231C151.904 206.727 150.481 208.728 149.8 210.968C154.665 212.813 158.692 216.085 161.226 220.251C163.145 219.755 165.128 219.483 167.125 219.444C168.06 215.453 170.275 211.795 173.497 208.923Z" fill="#EEBC70"/>
<path d="M415.049 155.59C407.956 153.881 400.855 158.86 398.24 166.405L378.615 222.358C376.23 229.228 371.782 234.963 366.021 238.669L319.341 268.702C315.868 270.936 311.387 269.598 309.382 265.729C307.378 261.859 308.578 256.865 312.051 254.631L342.947 234.753C349.221 230.716 352.578 222.166 350.027 214.602C346.773 204.97 336.732 201.229 329.038 206.179L265.903 246.799C255.249 253.653 247.069 264.369 242.655 277.176L232.896 305.558L211.035 319.623C207.563 321.857 206.362 326.851 208.367 330.72L230.237 372.933C232.242 376.803 236.724 378.141 240.196 375.907L380.986 285.325C386.708 281.644 391.155 275.91 393.58 269.014L425.677 177.422C428.918 168.243 424.106 157.737 415.049 155.59Z" fill="#EFB092"/>
<path d="M46.728 155.59C53.8218 153.881 60.9228 158.86 63.5376 166.405L83.1621 222.358C85.5479 229.228 89.9953 234.963 95.7563 238.669L142.437 268.702C145.909 270.936 150.39 269.598 152.395 265.729C154.4 261.859 153.199 256.865 149.727 254.631L118.83 234.753C112.556 230.716 109.199 222.166 111.75 214.602C115.004 204.97 125.045 201.229 132.74 206.179L195.874 246.799C206.528 253.653 214.708 264.369 219.122 277.176L228.882 305.558L250.742 319.623C254.215 321.857 255.415 326.851 253.41 330.72L231.54 372.933C229.535 376.803 225.054 378.141 221.581 375.907L80.7912 285.325C75.0696 281.644 70.6222 275.91 68.197 269.014L36.1007 177.422C32.8595 168.243 37.6713 157.737 46.728 155.59Z" fill="#EFB092"/>
</g>
<defs>
<clipPath id="clip0_92_231">
<rect width="471.625" height="440.186" fill="white" transform="translate(0.597534 0.300049)"/>
</clipPath>
</defs>
</svg>
